<svg xmlns="http://www.w3.org/2000/svg" xml:space="preserve" width="75px" height="74px" version="1.1" style="shape-rendering:geometricPrecision; text-rendering:geometricPrecision; image-rendering:optimizeQuality; fill-rule:evenodd; clip-rule:evenodd"
viewBox="0 0 256 311"
 xmlns:xlink="http://www.w3.org/1999/xlink">
 <g>
  <metadata id="CorelCorpID_0Corel-Layer"/>
  <path stroke="#181818" stroke-width="2.53165" fill="#1F1B20" fill-rule="nonzero" class="fil0 str0" d="M128 305c-34,0 -64,-14 -87,-36 -22,-23 -36,-54 -36,-88 0,-14 3,-28 8,-42 4,-13 11,-26 20,-37l1 0 4 -3c2,0 4,-1 6,-2l3 -2 5 -2c1,0 2,-1 3,-1l4 -2 8 -3 5 -1 7 -2c2,-1 4,-1 5,-2l7 -1c2,-1 4,-1 6,-1 2,-1 4,-1 6,-1l0 0c9,-1 17,-2 25,-2 8,0 17,1 25,2l0 0c2,0 4,0 6,1 2,0 4,0 6,1l7 1c2,1 3,1 5,2l8 2c1,0 3,1 4,1l8 3 4 2c1,0 3,1 4,1l4 2 4 2c3,1 7,3 10,5l0 0c9,11 16,24 21,37 5,14 7,28 7,42 0,34 -14,65 -36,88 -22,22 -53,36 -87,36zm-78 -230c0,1 1,1 1,1 0,0 1,0 1,0 0,0 1,0 1,0 25,-10 50,-15 76,-15 25,0 50,5 75,15 0,1 1,0 1,0 1,0 1,0 1,-1l0 0c0,0 0,-1 0,-1 0,-1 0,-1 -1,-1l0 0c-25,-11 -51,-16 -76,-16 -26,0 -52,5 -78,16 0,0 -1,0 -1,1 0,0 0,1 0,1zm78 -56c3,0 5,1 7,2 1,2 2,4 2,7 0,2 -1,5 -2,6 -2,2 -4,3 -7,3 -2,0 -5,-1 -6,-3 -2,-1 -3,-4 -3,-6 0,-3 1,-5 3,-7 1,-1 4,-2 6,-2zm0 22c4,0 7,-2 9,-4 3,-2 4,-6 4,-9 0,-4 -1,-7 -4,-10 -2,-2 -5,-3 -9,-3 -3,0 -7,1 -9,3 -2,3 -4,6 -4,10 0,3 2,7 4,9 2,2 6,4 9,4zm-67 -10c2,0 4,1 6,3 2,1 3,4 3,6 0,3 -1,5 -3,7 -2,2 -4,3 -6,3 -3,0 -5,-1 -7,-3 -2,-2 -3,-4 -3,-7 0,-2 1,-4 3,-6 2,-2 4,-3 7,-3zm0 23c3,0 6,-2 9,-4 2,-3 4,-6 4,-10 0,-3 -2,-7 -4,-9 -3,-2 -6,-4 -9,-4 -4,0 -7,2 -10,4 -2,2 -4,6 -4,9 0,4 2,7 4,10 3,2 6,4 10,4zm135 -23c2,0 5,1 6,3 2,2 3,4 3,6 0,3 -1,5 -3,7 -1,2 -4,3 -6,3 -3,0 -5,-1 -7,-3 -1,-2 -2,-4 -2,-7 0,-2 1,-4 2,-6 2,-2 4,-3 7,-3zm0 23c3,0 7,-2 9,-4 2,-3 4,-6 4,-10 0,-3 -2,-7 -4,-9 -2,-2 -6,-4 -9,-4 -4,0 -7,2 -9,4 -3,2 -4,6 -4,9 0,4 1,7 4,10 2,2 5,4 9,4zm-117 98c1,-2 2,-3 4,-3 2,-1 4,0 5,1 2,1 3,2 4,4 0,2 0,4 -1,5 0,1 -1,2 -2,3 0,0 -1,1 -2,1 -1,0 -2,0 -3,0 -1,0 -2,0 -3,-1 -1,-1 -3,-3 -3,-4 -1,-2 0,-4 1,-6l0 0zm0 14c1,0 2,0 3,1 1,0 2,0 3,0 0,0 1,0 1,0 1,0 1,0 2,0 1,-1 3,-1 4,-2 1,-1 2,-2 2,-4 2,-2 2,-5 2,-8 -1,-3 -3,-5 -6,-7 -2,-1 -5,-2 -8,-1 -3,1 -5,2 -7,5l0 0c-1,3 -2,6 -1,9 1,3 3,5 5,7zm86 37c1,-1 1,-2 2,-2 1,-1 2,-1 3,-2 1,0 2,0 2,0 1,0 2,1 3,1 2,1 3,3 3,4 1,2 1,4 0,6 -1,2 -3,3 -5,3 -1,1 -3,1 -5,0 -2,-1 -3,-3 -3,-5 -1,-2 -1,-4 0,-5zm1 13c1,1 2,1 3,1 1,0 1,1 2,1 2,0 4,-1 6,-2 2,-1 3,-2 4,-4 2,-3 2,-6 1,-9 0,-2 -2,-5 -5,-6 -1,-1 -3,-2 -4,-2 -1,0 -3,0 -4,1 -2,0 -3,1 -4,1 -1,1 -2,2 -3,4l0 0c-2,2 -2,6 -1,8 1,3 2,6 5,7zm-78 -3c-1,1 -3,1 -5,0 -2,0 -3,-1 -4,-3 -1,-2 -2,-4 -1,-5 0,-2 2,-4 3,-5 1,0 1,0 2,-1 1,0 1,0 2,0l1 0 1 0c1,1 1,1 2,2 1,0 2,1 2,2 1,1 1,3 1,5 -1,2 -2,4 -4,5zm6 -12c0,-2 -1,-3 -2,-4 -2,0 -3,-1 -4,-1 -2,-1 -3,-1 -5,-1 -1,0 -2,1 -4,2 -2,1 -4,4 -5,6 -1,3 0,6 1,9 1,2 3,3 4,4 2,1 4,2 6,2 1,0 2,-1 3,-1 1,0 2,0 2,-1 3,-1 5,-4 6,-7 0,-2 0,-6 -2,-8l0 0zm74 -51c1,-1 1,-1 2,-1 0,0 1,0 2,0 1,0 2,0 3,1 1,0 2,1 3,2l0 0c1,2 1,4 0,6 0,1 -1,3 -3,4 -1,1 -2,1 -3,1 0,0 -1,0 -2,0 -1,0 -2,-1 -3,-1 -1,-1 -1,-2 -2,-3 -1,-1 -1,-3 0,-5 0,-2 1,-3 3,-4zm1 17c0,0 1,0 1,0 1,0 1,0 2,0 1,0 1,0 2,0 1,-1 2,-1 3,-1 3,-2 5,-4 5,-7 1,-3 1,-6 -1,-9l0 0c-1,-3 -4,-4 -7,-5 -2,-1 -5,0 -8,1 -3,2 -4,4 -5,7 -1,3 -1,6 1,8 1,2 2,3 3,4 1,1 2,1 4,2zm-41 72c-2,0 -4,-1 -5,-2 -1,-2 -2,-3 -2,-5 0,-2 1,-4 2,-5 1,-2 3,-3 5,-3 2,0 4,1 5,3 2,1 2,3 2,5 0,2 0,3 -2,5 -1,1 -3,2 -5,2zm0 -19c-3,0 -6,2 -8,4 -2,2 -3,5 -3,8 0,3 1,6 3,8 2,2 5,3 8,3 3,0 6,-1 8,-3 2,-2 3,-5 3,-8 0,-3 -1,-6 -3,-8 -2,-2 -5,-4 -8,-4zm0 -97c2,0 4,1 5,2 2,2 2,4 2,6 0,2 0,3 -2,5 -1,1 -3,2 -5,2 -2,0 -4,-1 -5,-2 -1,-2 -2,-3 -2,-5 0,-2 1,-4 2,-6 1,-1 3,-2 5,-2zm0 19c3,0 6,-2 8,-4 2,-2 3,-4 3,-7 0,-4 -1,-6 -3,-8 -2,-2 -5,-4 -8,-4 -3,0 -6,2 -8,4 -2,2 -3,4 -3,8 0,3 1,5 3,7 2,2 5,4 8,4zm-22 39c0,-6 2,-12 6,-16 4,-4 10,-6 16,-6 6,0 12,2 16,6 4,4 7,10 7,16 0,6 -3,12 -7,16 -4,4 -10,7 -16,7 -6,0 -12,-3 -16,-7 -4,-4 -6,-10 -6,-16zm49 0c0,-7 -3,-14 -8,-19 -5,-4 -12,-7 -19,-7 -7,0 -14,3 -18,7 -5,5 -8,12 -8,19 0,7 3,14 8,19 4,5 11,8 18,8 7,0 14,-3 19,-8 5,-5 8,-12 8,-19zm15 102l-13 -32 1 0c11,-5 21,-13 28,-22 8,-9 13,-20 16,-32l0 -1c0,-2 0,-4 1,-6l0 -2c0,-1 0,-2 0,-3 0,-1 0,-3 0,-4 0,-1 0,-2 0,-3 0,-2 0,-3 0,-4l-1 -5 0 -2c-1,-3 -1,-5 -2,-8l-1 -4 32 -13 1 1c10,28 8,57 -3,83 -11,25 -31,46 -58,58l-1 0 0 -1zm-108 -76l-1 -3c-1,-2 -1,-4 -2,-6l-1 -3 0 -3c0,-1 0,-3 0,-4l-1 -3c0,-2 0,-3 0,-4 0,-1 0,-2 0,-3l1 -4c0,-1 0,-2 0,-4l1 -4c2,-10 6,-19 12,-28 6,-8 14,-15 23,-20l1 0c0,-1 1,-1 2,-1l4 -2c4,-2 9,-3 13,-4 5,-1 9,-2 14,-2 15,0 29,5 40,13 12,8 21,20 27,34l1 2 0 3 1 4 1 2c0,1 0,2 0,3l1 2c0,0 0,1 0,2 0,1 0,2 0,4 0,1 0,2 0,3 0,1 0,2 0,3 0,3 0,6 -1,8l0 4c-2,10 -7,20 -13,28 -6,8 -14,15 -23,20l-3 2 -4 1c-4,2 -8,3 -13,4 -4,1 -9,2 -14,2 -15,0 -28,-5 -40,-13 -11,-8 -21,-19 -26,-33l0 0zm172 -68c0,0 0,0 0,-1 0,0 0,0 -1,0 0,0 0,0 0,0 -1,0 -1,0 -1,0l-35 14 0 -1c-6,-14 -16,-25 -28,-33 -12,-8 -26,-13 -41,-13 -4,0 -8,1 -12,1 -4,1 -9,2 -13,4l0 0 -9 -23c0,0 -1,0 -1,-1 -1,0 -1,0 -2,0 0,1 0,1 -1,1 0,1 0,1 0,2l9 22 -1 1c-11,5 -21,12 -28,21 -8,10 -13,21 -15,33l-1 3 0 5 -1 4c0,1 0,2 0,3 0,1 0,3 0,4 0,1 0,2 1,3 0,1 0,2 0,3l0 4 1 2c0,2 1,4 2,6l1 4c-11,4 -22,8 -33,13l0 -1c-8,-20 -9,-42 -4,-62 4,-20 14,-39 29,-54 0,-1 1,-1 1,-2 0,0 -1,-1 -1,-1 0,0 -1,-1 -1,-1 -1,0 -1,1 -2,1 -16,16 -26,36 -30,58 -5,21 -3,44 5,65 0,0 0,1 0,1 1,0 1,0 1,0l0 0 1 0 0 0 1 0 34 -13 0 0c6,14 16,25 28,33 12,8 26,13 41,13 4,0 9,-1 13,-1 4,-1 8,-2 12,-4l1 0 13 35c0,0 1,1 1,1 0,0 0,0 0,0l1 0 0 0 1 0 0 0c29,-11 51,-34 63,-61 11,-27 13,-58 1,-88zm-201 -79l1 -1c3,-3 5,-5 6,-6 1,-1 1,-2 0,-4 0,-1 -1,-2 -1,-3 0,-1 -1,-3 -1,-6 0,-6 3,-12 7,-16 4,-4 9,-6 16,-6 4,0 9,1 12,4 4,3 7,6 9,11 0,0 0,1 0,1 1,0 1,0 2,0l5 -1 5 -1c2,-1 4,-1 5,-1 2,0 4,-1 5,-1 1,0 1,0 1,0 0,0 1,-1 1,-1 0,0 0,0 0,-1 0,0 0,0 0,0l0 -1c0,-6 2,-11 7,-15 4,-4 9,-7 15,-7 6,0 12,3 16,7 4,4 7,10 7,16l0 0c0,1 0,1 0,1 0,1 1,1 1,1 4,1 7,1 10,2 4,0 7,1 10,2 1,0 1,0 2,0 0,0 1,-1 1,-1 1,-5 4,-8 8,-11 4,-3 8,-4 13,-4 6,0 12,2 16,6 4,4 6,10 6,16 0,3 0,5 0,6 -1,1 -1,2 -2,3 -1,2 -1,3 0,4 1,2 3,3 7,6l0 1c8,6 11,11 11,17 1,6 -2,12 -7,22l0 0c0,0 -2,0 -2,-1 -1,0 -2,-1 -3,-1l-4 -2c-2,-1 -3,-2 -4,-2 -2,-1 -4,-2 -6,-3l-7 -2c-1,-1 -3,-2 -4,-2l-8 -3c-1,0 -3,-1 -5,-2l-7 -1c-16,-5 -32,-7 -49,-7 -16,0 -33,2 -49,7l-1 0c-2,0 -3,1 -5,1 -2,1 -4,2 -6,2l-7 3c-2,0 -4,1 -5,2l-6 2c-2,1 -4,2 -6,3 -2,0 -3,1 -4,2l-4 2c-1,0 -2,1 -3,1 -1,1 -2,1 -3,1l0 0c-5,-10 -7,-16 -7,-22 0,-6 4,-11 11,-17zm197 43l0 0c5,-10 8,-18 8,-25 0,-7 -3,-14 -12,-21l-4 -3c-1,-1 -2,-2 -2,-2l0 -1 0 0c0,-1 1,-2 1,-4 1,-1 1,-4 1,-7 0,-7 -3,-14 -8,-18 -4,-5 -11,-8 -18,-8 -5,0 -10,1 -14,4 -4,3 -8,7 -10,11l0 1 -1 0c-3,-1 -5,-2 -8,-2 -3,-1 -5,-1 -8,-1l-1 -1 0 0c0,-7 -3,-13 -8,-18 -5,-4 -11,-7 -18,-7 -7,0 -13,3 -18,7 -4,5 -8,11 -8,18l0 0 -5 1 -5 1c-2,1 -4,1 -7,2l0 0 -1 -1c-2,-4 -5,-8 -9,-11 -4,-3 -9,-4 -14,-4 -8,0 -14,3 -19,8 -5,4 -8,11 -8,18 0,3 1,6 1,7 1,2 1,3 2,4l0 0 -1 1c0,0 -2,2 -4,4l-2 1c-8,7 -12,14 -12,21 0,7 4,15 9,25 0,0 0,1 0,1l0 0c-8,11 -15,24 -19,37 -4,13 -7,26 -7,40 0,35 15,68 37,91 23,23 55,37 90,37 35,0 67,-14 90,-37 23,-23 37,-56 37,-91 0,-14 -2,-27 -6,-40 -5,-13 -11,-26 -19,-37l-1 0 1 -1z"/>
 </g>
</svg>
