<svg xmlns="http://www.w3.org/2000/svg" xml:space="preserve" width="83px" height="63px" version="1.1" style="shape-rendering:geometricPrecision; text-rendering:geometricPrecision; image-rendering:optimizeQuality; fill-rule:evenodd; clip-rule:evenodd"
viewBox="0 0 191 145"
 xmlns:xlink="http://www.w3.org/1999/xlink">
 <g>
  <metadata id="CorelCorpID_0Corel-Layer"/>
  <path fill="#181818" fill-rule="nonzero" stroke="#181818" stroke-width="1.4593" class="fil0 str0" d="M187 142l-184 0 0 -93 12 0c0,0 0,0 0,0 1,0 1,0 1,0l0 0c0,0 0,0 0,0 0,-1 0,-1 0,-1l0 -22c9,3 18,7 27,10l0 12c0,0 0,1 0,1 0,0 0,0 1,0 0,0 0,0 0,0 1,0 1,-1 1,-1l0 -21c9,3 17,6 26,9l0 12c0,0 0,1 1,1 0,0 0,0 0,0 1,0 1,0 1,0 0,0 0,-1 0,-1l0 -21 27 12 0 9 0 0 0 1c0,0 0,0 0,0 1,0 1,0 1,0l87 0 0 93 -1 0zm2 -95l-87 0 0 -8c0,0 0,0 0,-1 0,0 0,0 0,0 -4,-2 -22,-10 -29,-14 -1,0 -1,0 -1,0 0,0 0,0 -1,0 0,0 0,1 0,1l0 9c-6,-3 -23,-9 -27,-10 0,0 -1,0 -1,0 0,0 0,0 0,0 0,0 0,1 0,1l0 9c-6,-2 -17,-6 -28,-10 0,0 0,0 0,0 -1,0 -1,0 -1,0 0,0 0,1 0,1l0 22 -12 0c0,0 -1,0 -1,0 0,1 0,1 0,1l0 95c0,0 0,1 0,1 0,0 1,0 1,0l187 0c0,0 0,0 0,0 1,0 1,-1 1,-1l0 -95c0,0 0,0 -1,-1 0,0 0,0 0,0z"/>
  <path fill="none" stroke="#181818" stroke-width="3.64824" stroke-linecap="round" class="fil1 str1" d="M124 13l44 0c1,0 2,1 2,2l0 33 -49 0 0 -33c0,-1 2,-2 3,-2z"/>
  <path fill="none" stroke="#181818" stroke-width="3.64824" stroke-linecap="round" class="fil1 str1" d="M133 2l26 0c1,0 3,1 3,2l0 9 -32 0 0 -9c0,-1 1,-2 3,-2z"/>
  <circle fill="#181818" class="fil2" cx="116" cy="85" r="3"/>
  <circle fill="#181818" class="fil2" cx="155" cy="85" r="3"/>
  <circle fill="#181818" class="fil2" cx="116" cy="108" r="3"/>
  <circle fill="#181818" class="fil2" cx="155" cy="108" r="3"/>
  <path fill="none" stroke="#181818" stroke-width="3.64824" stroke-linecap="round" class="fil1 str2" d="M140 73c20,0 30,0 30,0"/>
  <path fill="none" stroke="#181818" stroke-width="3.64824" stroke-linecap="round" class="fil1 str2" d="M100 73c21,0 31,0 31,0"/>
  <path fill="none" stroke="#181818" stroke-width="3.64824" stroke-linecap="round" class="fil1 str2" d="M140 97c20,0 30,0 30,0"/>
  <path fill="none" stroke="#181818" stroke-width="3.64824" stroke-linecap="round" class="fil1 str2" d="M100 97c21,0 31,0 31,0"/>
  <path fill="none" stroke="#181818" stroke-width="3.64824" stroke-linecap="round" class="fil1 str2" d="M140 121c20,0 30,0 30,0"/>
  <path fill="none" stroke="#181818" stroke-width="3.64824" stroke-linecap="round" class="fil1 str2" d="M100 121c21,0 31,0 31,0"/>
  <rect fill="none" stroke="#181818" stoke-width="3.64824" class="fil1 str3" x="57" y="60" width="19.7895" height="30.8262" rx="2" ry="2"/>
  <rect fill="none" stroke="#181818" stoke-width="3.64824" class="fil1 str3" x="57" y="100" width="19.7895" height="30.8262" rx="2" ry="2"/>
  <rect fill="none" stroke="#181818" stoke-width="3.64824" class="fil1 str3" x="24" y="60" width="19.7895" height="70.4067" rx="2" ry="4"/>
 </g>
</svg>
