<?xml version="1.0" encoding="UTF-8"?>
<!DOCTYPE svg PUBLIC "-//W3C//DTD SVG 1.1//EN" "http://www.w3.org/Graphics/SVG/1.1/DTD/svg11.dtd">
<!-- Creator: CorelDRAW X8 -->
<svg xmlns="http://www.w3.org/2000/svg" xml:space="preserve" width="40.2903mm" height="18.1808mm" version="1.1" style="shape-rendering:geometricPrecision; text-rendering:geometricPrecision; image-rendering:optimizeQuality; fill-rule:evenodd; clip-rule:evenodd"
viewBox="0 0 891 402"
 xmlns:xlink="http://www.w3.org/1999/xlink">
 <defs>
  <style type="text/css">
   <![CDATA[
    .fil0 {fill:black}
   ]]>
  </style>
 </defs>
 <g id="Слой_x0020_1">
  <metadata id="CorelCorpID_0Corel-Layer"/>
  <path class="fil0" d="M884 185l-178 -178c-9,-9 -23,-9 -32,0 -9,9 -9,23 0,32l138 139 -789 0c-13,0 -23,10 -23,23 0,13 10,23 23,23l789 0 -138 139c-9,9 -9,23 0,32 4,5 10,7 16,7 6,0 12,-2 16,-7l179 -178c8,-9 8,-23 -1,-32z"/>
 </g>
</svg>
