<?xml version="1.0" encoding="UTF-8"?>
<!DOCTYPE svg PUBLIC "-//W3C//DTD SVG 1.1//EN" "http://www.w3.org/Graphics/SVG/1.1/DTD/svg11.dtd">
<!-- Creator: CorelDRAW X8 -->
<svg xmlns="http://www.w3.org/2000/svg" xml:space="preserve" width="60.3019mm" height="43.2415mm" version="1.1" style="shape-rendering:geometricPrecision; text-rendering:geometricPrecision; image-rendering:optimizeQuality; fill-rule:evenodd; clip-rule:evenodd"
viewBox="0 0 8232 5903"
 xmlns:xlink="http://www.w3.org/1999/xlink">
 <defs>
  <style type="text/css">
   <![CDATA[
    .fil0 {fill:#fff}
    .fil1 {fill:#E31E24;fill-rule:nonzero}
   ]]>
  </style>
 </defs>
 <g id="Слой_x0020_1">
  <metadata id="CorelCorpID_0Corel-Layer"/>
  <path class="fil0" d="M5657 0l2575 5903 -2157 0 -1710 -3980 830 -1923 462 0zm-4180 2502l0 0 1468 3401 -2945 0 1477 -3401z"/>
  <polygon class="fil1" points="1827,1701 1827,1701 1716,1958 3431,5903 3654,5903 "/>
  <polygon class="fil1" points="2072,1131 2072,1131 1962,1388 3925,5903 4147,5903 "/>
  <polygon class="fil1" points="2318,562 2318,562 2207,818 4418,5903 4641,5903 "/>
  <polygon class="fil1" points="2568,0 2568,0 2561,0 2453,249 4912,5903 5135,5903 "/>
  <polygon class="fil1" points="3061,0 5628,5903 5405,5903 2839,0 "/>
 </g>
</svg>
