<svg xmlns="http://www.w3.org/2000/svg" xml:space="preserve" width="89px" height="68px" version="1.1" style="shape-rendering:geometricPrecision; text-rendering:geometricPrecision; image-rendering:optimizeQuality; fill-rule:evenodd; clip-rule:evenodd"
viewBox="0 0 5802 4444"
 xmlns:xlink="http://www.w3.org/1999/xlink">

 <g id="Слой_x0020_1">
  <metadata id="CorelCorpID_0Corel-Layer"/>
  <path fill="none" stroke="#181818" stroke-width="90.601" class="fil0 str0" d="M2891 1969c0,1252 0,1878 0,1878 0,0 -694,177 -2082,530 -140,5 -281,8 -419,21 -107,10 -97,-69 -97,-109 8,-1849 4,-2883 0,-3103 -1,-74 17,-115 127,-106 174,10 295,16 363,20 10,0 19,1 26,1 1388,579 2082,868 2082,868z"/>
  <path fill="none" stroke="#181818" stroke-width="90.601" class="fil0 str0" d="M103 2411l190 0 0 642 -190 0c-32,0 -58,-26 -58,-58l0 -526c0,-32 26,-58 58,-58z"/>
  <path fill="none" stroke="#181818" stroke-width="90.601" class="fil0 str0" d="M809 1101c0,2184 0,3276 0,3276"/>
  <path fill="none" stroke="#181818" stroke-width="90.601" class="fil0 str0" d="M1561 1415c1,1847 2,2770 2,2770"/>
  <path fill="none" stroke="#181818" stroke-width="90.601" class="fil0 str0" d="M2213 1686c1,1556 1,2333 1,2333"/>
  <path fill="none" stroke="#181818" stroke-width="90.601" class="fil0 str0" d="M809 1662c1388,416 2082,624 2082,624"/>
  <path fill="none" stroke="#181818" stroke-width="90.601" class="fil0 str0" d="M809 2282c1388,175 2082,263 2082,263"/>
  <path fill="none" stroke="#181818" stroke-width="90.601" class="fil0 str0" d="M809 2809c1388,29 2082,44 2082,44"/>
  <path fill="none" stroke="#181818" stroke-width="90.601" class="fil0 str0" d="M809 3336c1388,-130 2082,-195 2082,-195"/>
  <path fill="none" stroke="#181818" stroke-width="90.601" class="fil0 str0" d="M809 3948c1388,-352 2082,-528 2082,-528"/>
  <path fill="none" stroke="#181818" stroke-width="90.601" class="fil0 str0" d="M2960 1988l12 0 2121 0c69,0 126,57 126,126l0 1179c0,69 -57,126 -126,126l-2133 0c-26,0 -51,-8 -71,-22l0 -1429c20,5 45,20 71,20z"/>
  <path fill="none" stroke="#181818" stroke-width="90.601" class="fil0 str0" d="M2891 3847c23,-11 45,-19 67,-19 824,0 1236,0 1236,0 77,7 173,-130 289,-409"/>
  <path fill="none" stroke="#181818" stroke-width="90.601" class="fil0 str0" d="M2920 2298l1717 0c47,0 86,39 86,86l0 623c0,48 -39,86 -86,86l-1717 0c-11,0 -21,-2 -31,-5l0 -784c10,-4 20,-6 31,-6z"/>
  <path fill="none" stroke="#181818" stroke-width="90.601" class="fil0 str0" d="M5219 3081c0,-473 0,-710 0,-710 187,44 337,81 449,109 58,14 88,51 89,136 0,98 0,174 0,227 -1,70 -7,99 -102,124 -291,76 -436,114 -436,114z"/>
  <circle fill="#181818" class="fil1" cx="3222" cy="2529" r="63"/>
  <circle fill="#181818" class="fil1" cx="3222" cy="2891" r="63"/>
  <circle fill="#181818" class="fil1" cx="4382" cy="2529" r="63"/>
  <circle fill="#181818" class="fil1" cx="4382" cy="2891" r="63"/>
  <path fill="none" stroke="#181818" stroke-width="90.601" class="fil0 str0" d="M2891 1989c0,-146 0,-218 0,-218 6,-40 33,-55 80,-45 872,56 1308,84 1308,84 34,6 57,65 70,178"/>
  <path fill="none" stroke="#181818" stroke-width="90.601" class="fil0 str0" d="M2950 1730c0,-145 0,-193 0,-193 6,-41 33,-56 80,-45 665,131 1205,211 1205,211 25,5 44,40 58,107"/>
  <path fill="none" stroke="#181818" stroke-width="90.601" class="fil0 str0" d="M3032 1488c3,-145 2,-174 2,-174 7,-40 34,-54 81,-43 633,159 1054,290 1054,290 25,5 63,71 75,138"/>
  <path fill="none" stroke="#181818" stroke-width="90.601" class="fil0 str0" d="M3197 1275c3,-145 8,-158 8,-158 6,-40 33,-54 80,-43 615,189 781,285 781,285 64,41 91,135 103,202"/>
  <path fill="none" stroke="#181818" stroke-width="90.601" class="fil0 str0" d="M3534 1153c122,-376 173,-532 173,-532 -75,-40 -125,-64 -101,-171 70,-232 88,-316 88,-316 25,-69 96,-123 246,-63 65,24 149,50 149,50 105,32 139,108 111,208 -16,56 -55,180 -84,245 -28,63 -34,120 -113,126 -33,3 -72,-2 -110,-12 -103,350 -159,529 -159,529"/>
 </g>
</svg>
